<svg width="110" height="35" viewBox="0 0 110 35" fill="none" xmlns="http://www.w3.org/2000/svg">
<path d="M36.2568 0.410967L22.4192 34.7682C22.364 34.9053 22.1893 34.9996 21.9907 34.9996H14.288C14.104 34.9996 13.9113 34.8956 13.8595 34.7682L0.0225631 0.410967C-0.0684475 0.185528 0.124203 0.000732422 0.45038 0.000732422H10.8562C11.0508 0.000732422 11.2468 0.112368 11.2906 0.248932L17.7025 20.1521C17.941 20.8934 18.3323 20.9216 18.5708 20.1803L24.99 0.248932C25.0372 0.103697 25.2172 0.000732422 25.4245 0.000732422H35.8283C36.1252 0.000732422 36.3391 0.205579 36.2568 0.410967Z" fill="white"/>
<path d="M51.3187 34.9996H41.8057C41.6981 34.9996 41.5948 34.9648 41.5187 34.9027C41.4426 34.8406 41.3998 34.7563 41.3998 34.6685V0.331846C41.3998 0.24403 41.4426 0.159809 41.5187 0.0977135C41.5948 0.0356175 41.6981 0.000732422 41.8057 0.000732422L51.3187 0.000732422C51.4263 0.000732422 51.5296 0.0356175 51.6057 0.0977135C51.6818 0.159809 51.7246 0.24403 51.7246 0.331846V34.6685C51.7246 34.7563 51.6818 34.8406 51.6057 34.9027C51.5296 34.9648 51.4263 34.9996 51.3187 34.9996Z" fill="white"/>
<path d="M77.5649 0.000732422H57.2948C57.0484 0.000732422 56.8491 0.144342 56.8491 0.32155V6.88476C56.8491 7.06197 57.0484 7.20558 57.2948 7.20558H66.6417C67.401 7.20558 68.0161 7.64833 68.0161 8.19458V33.098C68.0161 34.1472 69.2019 35.0002 70.6641 35.0002H77.5649C77.8114 35.0002 78.0107 34.8566 78.0107 34.6794V0.32155C78.0107 0.144342 77.8114 0.000732422 77.5649 0.000732422Z" fill="white"/>
<path d="M83.6321 34.9995H109.554C109.799 34.9995 110 34.8553 110 34.6786V28.2379C110 28.0612 109.799 27.9171 109.554 27.9171L94.8849 27.8493C94.1369 27.8401 93.5376 27.3995 93.5416 26.8614L93.531 0.988465C93.5343 0.443292 92.9212 0 92.1639 0H83.6328C83.3863 0 83.187 0.143609 83.187 0.320817V34.6786C83.187 34.8558 83.3863 34.9995 83.6328 34.9995H83.6321Z" fill="white"/>
</svg>
