<svg width="28" height="25" viewBox="0 0 28 25" fill="none" xmlns="http://www.w3.org/2000/svg">
<path d="M26.9231 4.8637H8.61538C8.32976 4.8637 8.05584 4.74877 7.85388 4.54418C7.65191 4.3396 7.53845 4.06212 7.53845 3.77279C7.53845 3.48347 7.65191 3.20599 7.85388 3.0014C8.05584 2.79682 8.32976 2.68188 8.61538 2.68188H26.9231C27.2087 2.68188 27.4826 2.79682 27.6846 3.0014C27.8865 3.20599 28 3.48347 28 3.77279C28 4.06212 27.8865 4.3396 27.6846 4.54418C27.4826 4.74877 27.2087 4.8637 26.9231 4.8637Z" fill="white"/>
<path d="M4.30769 4.8637H1.07692C0.791305 4.8637 0.517386 4.74877 0.315423 4.54418C0.113461 4.3396 0 4.06212 0 3.77279C0 3.48347 0.113461 3.20599 0.315423 3.0014C0.517386 2.79682 0.791305 2.68188 1.07692 2.68188H4.30769C4.59331 2.68188 4.86723 2.79682 5.06919 3.0014C5.27115 3.20599 5.38462 3.48347 5.38462 3.77279C5.38462 4.06212 5.27115 4.3396 5.06919 4.54418C4.86723 4.74877 4.59331 4.8637 4.30769 4.8637Z" fill="white"/>
<path d="M19.3846 13.5905H1.07692C0.791305 13.5905 0.517386 13.4756 0.315423 13.271C0.113461 13.0664 0 12.7889 0 12.4996C0 12.2103 0.113461 11.9328 0.315423 11.7282C0.517386 11.5236 0.791305 11.4087 1.07692 11.4087H19.3846C19.6702 11.4087 19.9442 11.5236 20.1461 11.7282C20.3481 11.9328 20.4615 12.2103 20.4615 12.4996C20.4615 12.7889 20.3481 13.0664 20.1461 13.271C19.9442 13.4756 19.6702 13.5905 19.3846 13.5905Z" fill="white"/>
<path d="M8.61539 22.318H1.07692C0.791305 22.318 0.517386 22.2031 0.315423 21.9985C0.113461 21.7939 0 21.5165 0 21.2271C0 20.9378 0.113461 20.6603 0.315423 20.4557C0.517386 20.2512 0.791305 20.1362 1.07692 20.1362H8.61539C8.901 20.1362 9.17492 20.2512 9.37688 20.4557C9.57885 20.6603 9.69231 20.9378 9.69231 21.2271C9.69231 21.5165 9.57885 21.7939 9.37688 21.9985C9.17492 22.2031 8.901 22.318 8.61539 22.318Z" fill="white"/>
<path d="M6.46148 7.04546C5.8225 7.04546 5.19786 6.85351 4.66656 6.4939C4.13527 6.13429 3.72117 5.62316 3.47664 5.02515C3.23211 4.42713 3.16813 3.7691 3.29279 3.13425C3.41745 2.4994 3.72515 1.91626 4.17698 1.45856C4.62882 1.00086 5.20448 0.689165 5.83119 0.562886C6.4579 0.436607 7.1075 0.501418 7.69784 0.749123C8.28819 0.996828 8.79277 1.4163 9.14777 1.9545C9.50277 2.4927 9.69225 3.12544 9.69225 3.77273C9.69225 4.64071 9.35187 5.47314 8.74598 6.0869C8.1401 6.70065 7.31834 7.04546 6.46148 7.04546ZM6.46148 2.68182C6.24849 2.68182 6.04028 2.7458 5.86318 2.86567C5.68608 2.98554 5.54805 3.15592 5.46654 3.35526C5.38503 3.55459 5.3637 3.77394 5.40525 3.98555C5.44681 4.19717 5.54937 4.39155 5.69998 4.54412C5.85059 4.69668 6.04248 4.80058 6.25139 4.84268C6.46029 4.88477 6.67682 4.86317 6.8736 4.7806C7.07039 4.69803 7.23858 4.5582 7.35691 4.37881C7.47525 4.19941 7.53841 3.98849 7.53841 3.77273C7.53841 3.4834 7.42494 3.20592 7.22298 3.00134C7.02102 2.79675 6.7471 2.68182 6.46148 2.68182Z" fill="white"/>
<path d="M21.5384 15.773C20.8994 15.773 20.2748 15.5811 19.7435 15.2214C19.2122 14.8618 18.7981 14.3507 18.5535 13.7527C18.309 13.1547 18.245 12.4966 18.3697 11.8618C18.4944 11.2269 18.8021 10.6438 19.2539 10.1861C19.7057 9.7284 20.2814 9.4167 20.9081 9.29043C21.5348 9.16415 22.1844 9.22896 22.7747 9.47666C23.3651 9.72437 23.8697 10.1438 24.2247 10.682C24.5797 11.2202 24.7692 11.853 24.7692 12.5003C24.7692 13.3682 24.4288 14.2007 23.8229 14.8144C23.217 15.4282 22.3952 15.773 21.5384 15.773ZM21.5384 11.4094C21.3254 11.4094 21.1172 11.4733 20.9401 11.5932C20.763 11.7131 20.625 11.8835 20.5434 12.0828C20.4619 12.2821 20.4406 12.5015 20.4822 12.7131C20.5237 12.9247 20.6263 13.1191 20.7769 13.2717C20.9275 13.4242 21.1194 13.5281 21.3283 13.5702C21.5372 13.6123 21.7537 13.5907 21.9505 13.5081C22.1473 13.4256 22.3155 13.2857 22.4338 13.1063C22.5522 12.9269 22.6153 12.716 22.6153 12.5003C22.6153 12.2109 22.5019 11.9335 22.2999 11.7289C22.0979 11.5243 21.824 11.4094 21.5384 11.4094Z" fill="white"/>
<path d="M10.7692 24.4998C10.1302 24.4998 9.5056 24.3079 8.9743 23.9482C8.44301 23.5886 8.02891 23.0775 7.78438 22.4795C7.53985 21.8815 7.47587 21.2234 7.60053 20.5886C7.72519 19.9537 8.03289 19.3706 8.48472 18.9129C8.93656 18.4552 9.51222 18.1435 10.1389 18.0172C10.7656 17.891 11.4152 17.9558 12.0056 18.2035C12.5959 18.4512 13.1005 18.8706 13.4555 19.4088C13.8105 19.947 14 20.5798 14 21.2271C14 22.0951 13.6596 22.9275 13.0537 23.5412C12.4478 24.155 11.6261 24.4998 10.7692 24.4998ZM10.7692 20.1362C10.5562 20.1362 10.348 20.2001 10.1709 20.32C9.99382 20.4399 9.85579 20.6103 9.77428 20.8096C9.69277 21.0089 9.67144 21.2283 9.71299 21.4399C9.75455 21.6515 9.85711 21.8459 10.0077 21.9985C10.1583 22.151 10.3502 22.2549 10.5591 22.297C10.768 22.3391 10.9846 22.3175 11.1813 22.2349C11.3781 22.1524 11.5463 22.0126 11.6647 21.8332C11.783 21.6538 11.8461 21.4428 11.8461 21.2271C11.8461 20.9377 11.7327 20.6603 11.5307 20.4557C11.3288 20.2511 11.0548 20.1362 10.7692 20.1362Z" fill="white"/>
<path d="M26.923 13.5905H23.6923C23.4067 13.5905 23.1327 13.4756 22.9308 13.271C22.7288 13.0664 22.6154 12.7889 22.6154 12.4996C22.6154 12.2103 22.7288 11.9328 22.9308 11.7282C23.1327 11.5236 23.4067 11.4087 23.6923 11.4087H26.923C27.2087 11.4087 27.4826 11.5236 27.6845 11.7282C27.8865 11.9328 28 12.2103 28 12.4996C28 12.7889 27.8865 13.0664 27.6845 13.271C27.4826 13.4756 27.2087 13.5905 26.923 13.5905Z" fill="white"/>
<path d="M26.9231 22.318H12.9231C12.6375 22.318 12.3636 22.2031 12.1616 21.9985C11.9597 21.7939 11.8462 21.5165 11.8462 21.2271C11.8462 20.9378 11.9597 20.6603 12.1616 20.4557C12.3636 20.2512 12.6375 20.1362 12.9231 20.1362H26.9231C27.2087 20.1362 27.4827 20.2512 27.6846 20.4557C27.8866 20.6603 28 20.9378 28 21.2271C28 21.5165 27.8866 21.7939 27.6846 21.9985C27.4827 22.2031 27.2087 22.318 26.9231 22.318Z" fill="white"/>
</svg>
